<svg width="48" height="48" viewBox="0 0 48 48" fill="none" xmlns="http://www.w3.org/2000/svg">
<path fill-rule="evenodd" clip-rule="evenodd" d="M24 39C24.5523 39 25 39.4477 25 40V43C25 43.5523 24.5523 44 24 44C23.4477 44 23 43.5523 23 43V40C23 39.4477 23.4477 39 24 39Z" fill="#236AFD"/>
<path fill-rule="evenodd" clip-rule="evenodd" d="M27.67 5.98673C25.7885 3.63488 22.2114 3.63488 20.33 5.98673C19.8176 6.62719 19.0419 7.00001 18.2217 7.00001L17.2406 6.99998C16.0928 6.99958 15.3093 6.99931 14.6398 7.18857C12.9679 7.66121 11.6612 8.96792 11.1885 10.6399C10.9992 11.3094 10.9995 12.0928 10.9999 13.2406L11 29.9811C10.9997 29.9943 10.9997 30.0074 11 30.0205L11 31.0355C10.9999 31.9373 10.9999 32.6647 11.0403 33.2567C11.0819 33.8655 11.1694 34.4037 11.3806 34.9134C11.888 36.1386 12.8614 37.1119 14.0865 37.6194C14.5962 37.8305 15.1345 37.9181 15.7433 37.9596C16.1078 37.9845 16.5237 37.9941 17 37.9977L16.9999 38.5393C16.9995 38.7956 16.9989 39.2219 17.1218 39.6231C17.2744 40.1211 17.6147 40.591 18.2346 40.8478C18.4686 40.9447 18.6943 40.9752 18.8847 40.9882C19.0588 41.0001 19.2634 41 19.4735 41H28.5264C28.7365 41 28.9411 41.0001 29.1152 40.9882C29.3056 40.9752 29.5313 40.9447 29.7653 40.8478C30.3852 40.591 30.7255 40.1211 30.8781 39.6231C31.001 39.2219 31.0004 38.7956 31 38.5393L31 37.9977C31.4762 37.9941 31.8921 37.9845 32.2566 37.9596C32.8654 37.9181 33.4037 37.8305 33.9134 37.6194C35.1385 37.1119 36.1119 36.1386 36.6193 34.9134C36.8305 34.4037 36.918 33.8655 36.9596 33.2567C37 32.6647 37 31.9373 37 31.0355V30.0089C37 30.0059 37 30.003 37 30C37 29.9971 37 29.9941 37 29.9912L37 13.2406C37.0004 12.0928 37.0007 11.3094 36.8114 10.6399C36.3388 8.96792 35.032 7.66121 33.3601 7.18857C32.6906 6.99931 31.9071 6.99958 30.7593 6.99998L29.7782 7.00001C28.958 7.00001 28.1823 6.62719 27.67 5.98673ZM35 28.6334V13.4031C35 12.0302 34.9904 11.5505 34.8868 11.1839C34.6032 10.1808 33.8192 9.39673 32.816 9.11315C32.4495 9.00952 31.9698 9.00001 30.5968 9.00001H29.7782C28.3505 9.00001 27.0001 8.35101 26.1082 7.23612C25.0274 5.88508 22.9725 5.88508 21.8917 7.23612C20.9998 8.35101 19.6494 9.00001 18.2217 9.00001H17.4031C16.0301 9.00001 15.5504 9.00952 15.1839 9.11315C14.1807 9.39673 13.3967 10.1808 13.1131 11.1839C13.0095 11.5505 13 12.0302 13 13.4031V29.2071C16.5836 30.0064 19.0059 29.9469 22.7625 29.0286C23.82 28.7701 24.5832 28.2476 25.4704 27.6402C25.6139 27.542 25.7607 27.4415 25.9125 27.3396C26.9794 26.623 28.2375 25.8946 30.0587 26.0017C31.7189 26.0994 32.9468 27.0575 33.8514 27.7737L33.9751 27.8717C34.3627 28.1791 34.6842 28.4341 35 28.6334ZM19 38.5V38H29V38.5C29 38.648 28.9994 38.7576 28.9924 38.8574C28.9882 38.9179 28.9823 38.9618 28.9763 38.993C28.879 38.9995 28.7443 39 28.5 39H19.5C19.2556 39 19.1209 38.9995 19.0236 38.993C19.0176 38.9618 19.0117 38.9179 19.0075 38.8574C19.0005 38.7576 19 38.648 19 38.5Z" fill="#236AFD"/>
</svg>
