<svg width="48" height="48" viewBox="0 0 48 48" fill="none" xmlns="http://www.w3.org/2000/svg">
<path d="M17 7C15.6716 7 14.5448 7.86343 14.1503 9.0597C11.239 9.4724 9 11.9747 9 15V24C9 29.7542 13.4182 34.4764 19.0473 34.9593C19.56 40.0623 24.1492 42.7475 28.4706 42.8746C30.7884 42.9427 33.1614 42.2982 34.9749 40.8225C36.8145 39.3256 38 37.0345 38 34V26H36V34C36 36.4655 35.0605 38.1744 33.7126 39.2712C32.3386 40.3893 30.4616 40.9323 28.5294 40.8754C24.9136 40.7691 21.5548 38.6408 21.062 34.9494C26.6388 34.4152 31 29.7169 31 24V15C31 12.3582 29.2927 10.1152 26.9213 9.3142C26.6111 7.98783 25.4209 7 24 7C22.3431 7 21 8.34315 21 10C21 11.6569 22.3431 13 24 13C25.1652 13 26.1752 12.3357 26.6721 11.3652C28.0462 11.9984 29 13.3878 29 15V24C29 28.9706 24.9706 33 20 33C15.0294 33 11 28.9706 11 24V15C11 13.0647 12.3743 11.4505 14.2003 11.08C14.6338 12.2032 15.7239 13 17 13C18.6569 13 20 11.6569 20 10C20 8.34315 18.6569 7 17 7Z" fill="#236AFD"/>
<path fill-rule="evenodd" clip-rule="evenodd" d="M33 23C33 20.7909 34.7909 19 37 19C39.2091 19 41 20.7909 41 23C41 25.2091 39.2091 27 37 27C34.7909 27 33 25.2091 33 23ZM37 24C37.5523 24 38 23.5523 38 23C38 22.4477 37.5523 22 37 22C36.4477 22 36 22.4477 36 23C36 23.5523 36.4477 24 37 24Z" fill="#236AFD"/>
</svg>
