<svg width="48" height="48" viewBox="0 0 48 48" fill="none" xmlns="http://www.w3.org/2000/svg">
<path d="M5 18.6775C5 12.2846 9.87009 7 16.008 7C19.1767 7 22.0097 8.41974 24.0004 10.6666C25.9948 8.41917 28.8398 7 31.992 7C38.1299 7 43 12.2846 43 18.6775C43 20.102 42.8101 21.5519 42.4542 23H36.4142L34.1976 20.7834C33.4737 20.0595 32.2532 20.2575 31.7953 21.1733L29.726 25.3118L28.1245 23.7102C27.469 23.0548 26.382 23.1448 25.8432 23.8991L22.4756 28.6137L20.2669 19.0427C19.958 17.704 18.1613 17.4505 17.4941 18.6515L13.8747 25.1663L12.1459 22.8612C11.5982 22.1309 10.5307 22.0551 9.88524 22.7005L8.58579 24H5.65658C5.22863 22.2915 5 20.5127 5 18.6775Z" fill="#236AFD"/>
<path d="M6.25844 26C8.96799 33.69 15.752 39.7336 23.6455 42.7261C23.8739 42.8127 24.1261 42.8127 24.3545 42.7261C29.5459 40.758 34.1906 37.0946 37.5399 32.7803C39.4199 30.3587 40.9121 27.7049 41.8582 25H36.2071C35.8093 25 35.4278 24.842 35.1464 24.5607L33.274 22.6882L31.2047 26.8267C30.7468 27.7425 29.5263 27.9405 28.8024 27.2166L27.1276 25.5418L23.4584 30.6787C22.7073 31.7302 21.0668 31.4033 20.7762 30.1441L18.6106 20.76L15.2486 26.8116C14.7208 27.7616 13.3894 27.8526 12.7374 26.9832L10.8918 24.5224L9.85355 25.5607C9.57225 25.842 9.19072 26 8.79289 26H6.25844Z" fill="#236AFD"/>
</svg>
