<svg width="48" height="48" viewBox="0 0 48 48" fill="none" xmlns="http://www.w3.org/2000/svg">
<path fill-rule="evenodd" clip-rule="evenodd" d="M12 15C11.0171 15 10.1896 15.3337 9.60539 15.9179C9.0306 16.4927 8.75 17.2526 8.75 18C8.75 18.7474 9.0306 19.5073 9.60539 20.0821C10.1896 20.6663 11.0171 21 12 21L16.001 21C16.5569 21 17 21.4448 17 21.9935V41C17 41.9829 17.3337 42.8104 17.9179 43.3946C18.4927 43.9694 19.2526 44.25 20 44.25C20.7474 44.25 21.5073 43.9694 22.0821 43.3946C22.6663 42.8104 23 41.9829 23 41C23 39.486 23.0016 37.3045 23.2412 35.5072C23.3623 34.599 23.5342 33.8746 23.7517 33.4034C23.8657 33.1565 23.9529 33.0544 24 33.0146C24.0471 33.0544 24.1343 33.1565 24.2483 33.4034C24.4658 33.8746 24.6377 34.599 24.7588 35.5072C24.9984 37.3045 25 39.486 25 41C25 41.9829 25.3337 42.8104 25.9179 43.3946C26.4927 43.9694 27.2526 44.25 28 44.25C28.7474 44.25 29.5073 43.9694 30.0821 43.3946C30.6663 42.8104 31 41.9829 31 41V22C31 21.4477 31.4477 21 32 21H36C36.9829 21 37.8104 20.6663 38.3946 20.0821C38.9694 19.5073 39.25 18.7474 39.25 18C39.25 17.2526 38.9694 16.4927 38.3946 15.9179C37.8104 15.3337 36.9829 15 36 15H12ZM24.0392 32.9916C24.0392 32.9916 24.0339 32.9961 24.0223 32.9982C24.0332 32.9915 24.0392 32.9916 24.0392 32.9916ZM23.9777 32.9982C23.9661 32.9961 23.9608 32.9916 23.9608 32.9916C23.9608 32.9916 23.9668 32.9916 23.9777 32.9982Z" fill="#236AFD"/>
<path d="M24 4C21.2386 4 19 6.23858 19 9C19 11.7614 21.2386 14 24 14C26.7614 14 29 11.7614 29 9C29 6.23858 26.7614 4 24 4Z" fill="#236AFD"/>
</svg>
