<svg width="48" height="48" viewBox="0 0 48 48" fill="none" xmlns="http://www.w3.org/2000/svg">
<path fill-rule="evenodd" clip-rule="evenodd" d="M24 28C28.4183 28 32 24.4183 32 20C32 15.5817 28.4183 12 24 12C19.5817 12 16 15.5817 16 20C16 24.4183 19.5817 28 24 28ZM22.125 16.875C22.125 16.2926 22.125 16.0014 22.2201 15.7716C22.347 15.4654 22.5904 15.222 22.8966 15.0952C23.1264 15 23.4176 15 24 15C24.5824 15 24.8736 15 25.1034 15.0952C25.4096 15.222 25.653 15.4654 25.7799 15.7716C25.875 16.0014 25.875 16.2926 25.875 16.875V18.065C25.875 18.0933 25.875 18.1074 25.8838 18.1162C25.8926 18.125 25.9067 18.125 25.935 18.125H27.125C27.7074 18.125 27.9986 18.125 28.2284 18.2202C28.5346 18.347 28.778 18.5904 28.9049 18.8966C29 19.1264 29 19.4176 29 20C29 20.5824 29 20.8736 28.9049 21.1034C28.778 21.4096 28.5346 21.653 28.2284 21.7799C27.9986 21.875 27.7074 21.875 27.125 21.875H25.935C25.9067 21.875 25.8926 21.875 25.8838 21.8838C25.875 21.8926 25.875 21.9067 25.875 21.935V23.125C25.875 23.7074 25.875 23.9986 25.7799 24.2284C25.653 24.5346 25.4096 24.778 25.1034 24.9049C24.8736 25 24.5824 25 24 25C23.4176 25 23.1264 25 22.8966 24.9049C22.5904 24.778 22.347 24.5346 22.2201 24.2284C22.125 23.9986 22.125 23.7074 22.125 23.125V21.935C22.125 21.9067 22.125 21.8926 22.1162 21.8838C22.1074 21.875 22.0933 21.875 22.065 21.875H20.875C20.2926 21.875 20.0014 21.875 19.7716 21.7799C19.4654 21.653 19.222 21.4096 19.0952 21.1034C19 20.8736 19 20.5824 19 20C19 19.4176 19 19.1264 19.0952 18.8966C19.222 18.5904 19.4654 18.347 19.7716 18.2201C20.0014 18.125 20.2926 18.125 20.875 18.125H22.065C22.0933 18.125 22.1074 18.125 22.1162 18.1162C22.125 18.1074 22.125 18.0933 22.125 18.065V16.875Z" fill="#236AFD"/>
<path fill-rule="evenodd" clip-rule="evenodd" d="M8.02637 16.7718C11.9224 0.153494 36.096 0.14788 39.9738 16.7729C40.5372 19.1876 40.1789 22.093 39.3142 25.0129C38.4436 27.9528 37.0295 31.0086 35.3675 33.7742C33.7068 36.5375 31.7758 39.0489 29.8499 40.8837C28.8869 41.8011 27.9055 42.5682 26.9405 43.1109C25.9828 43.6495 24.9824 44 24 44C23.0177 44 22.0173 43.6497 21.0595 43.1113C20.0945 42.5688 19.113 41.802 18.15 40.8849C16.2239 39.0506 14.2928 36.54 12.6319 33.777C10.9697 31.0119 9.55552 27.9563 8.68499 25.0159C7.82034 22.0955 7.4626 19.1882 8.02637 16.7718ZM24 30C29.5228 30 34 25.5228 34 20C34 14.4772 29.5228 10 24 10C18.4772 10 14 14.4772 14 20C14 25.5228 18.4772 30 24 30Z" fill="#236AFD"/>
</svg>
