<svg width="48" height="48" viewBox="0 0 48 48" fill="none" xmlns="http://www.w3.org/2000/svg">
<path fill-rule="evenodd" clip-rule="evenodd" d="M16.1716 31.6422C16.5621 32.0327 16.5621 32.6659 16.1716 33.0564L10.364 38.864C9.97344 39.2545 9.34028 39.2545 8.94975 38.864C8.55923 38.4735 8.55923 37.8403 8.94975 37.4498L14.7574 31.6422C15.1479 31.2516 15.7811 31.2516 16.1716 31.6422Z" fill="#236AFD"/>
<path fill-rule="evenodd" clip-rule="evenodd" d="M35.6796 8.38998C35.5442 7.40931 36.7328 6.81857 37.4328 7.51855L40.2952 10.381C40.9952 11.081 40.4043 12.2696 39.4237 12.1342C39.1725 12.0995 38.9395 11.9837 38.7602 11.8043L38.0919 11.1361L35.9706 13.2574L40.2132 17.5C40.6038 17.8905 40.6038 18.5237 40.2132 18.9142C39.8227 19.3047 39.1895 19.3047 38.799 18.9142L38.0919 18.2071L23.9498 32.3493C23.0261 33.2729 21.6501 33.4684 20.535 32.9357L20.4142 33.0564C18.8521 34.6185 16.3195 34.6185 14.7574 33.0564C13.1953 31.4943 13.1953 28.9616 14.7574 27.3995L14.8781 27.2788C14.3454 26.1637 14.5409 24.7876 15.4645 23.864L29.6066 9.72184L28.8995 9.01473C28.509 8.6242 28.509 7.99104 28.8995 7.60052C29.29 7.20999 29.9232 7.20999 30.3137 7.60052L31.7278 9.01457L34.5564 11.8432L36.6777 9.72185L36.0094 9.05356C35.8301 8.87423 35.7142 8.64121 35.6796 8.38998ZM31.0208 11.136L25.364 16.7929L31.0208 22.4498L36.6777 16.7929L31.0208 11.136ZM16.1716 28.8137C15.3906 29.5948 15.3906 30.8611 16.1716 31.6421C16.9526 32.4232 18.219 32.4232 19 31.6421L16.1716 28.8137Z" fill="#236AFD"/>
</svg>
