<svg width="24" height="24" viewBox="0 0 24 24" fill="none" xmlns="http://www.w3.org/2000/svg">
<path d="M10.1991 3.3452L10.1996 3.34474C11.191 2.54852 12.8013 2.55117 13.812 3.35608C13.8122 3.35623 13.8124 3.35638 13.8126 3.35653L20.3585 8.59326C20.6945 8.86805 20.9983 9.31034 21.1969 9.83019C21.3953 10.3495 21.4644 10.8823 21.3994 11.3116L20.1411 18.8417C20.1409 18.8424 20.1408 18.8431 20.1407 18.8439C19.9112 20.1582 18.6198 21.25 17.3 21.25H6.69999C5.35827 21.25 4.09878 20.1864 3.86945 18.8546C3.86936 18.8541 3.86927 18.8536 3.86919 18.8531L2.60974 11.3164L2.60945 11.3147C2.53623 10.8827 2.60057 10.3494 2.79827 9.83097C2.99594 9.31262 3.30328 8.8711 3.64776 8.59625L3.64906 8.5952L10.1991 3.3452ZM12 19.5C12.8242 19.5 13.5 18.8242 13.5 18V15C13.5 14.1758 12.8242 13.5 12 13.5C11.1758 13.5 10.5 14.1758 10.5 15V18C10.5 18.8242 11.1758 19.5 12 19.5Z" stroke="#7D7F88" stroke-width="1.5"/>
</svg>
